{
    "asset": {
        "version": "2.0",
        "generator": "This 3D model is generated by KIRI Engine App"
    },
    "extensionsUsed": [
        "KHR_materials_pbrSpecularGlossiness",
        "FB_ngon_encoding"
    ],
    "accessors": [
        {
            "bufferView": 0,
            "byteOffset": 0,
            "componentType": 5126,
            "count": 61181,
            "type": "VEC3",
            "max": [
                4.605245113372803,
                2.8910059928894045,
                2.1033380031585695
            ],
            "min": [
                -3.8840198516845705,
                -2.627685070037842,
                -4.240241050720215
            ]
        },
        {
            "bufferView": 1,
            "byteOffset": 0,
            "componentType": 5126,
            "count": 61181,
            "type": "VEC3",
            "max": [
                0.9998231530189514,
                0.9999867677688599,
                0.9999940395355225
            ],
            "min": [
                -0.9984690546989441,
                -0.9999831914901733,
                -0.9999685287475586
            ]
        },
        {
            "bufferView": 2,
            "byteOffset": 0,
            "componentType": 5126,
            "count": 61181,
            "type": "VEC2",
            "max": [
                0.9862440228462219,
                0.9998549818992615
            ],
            "min": [
                0.000037999998312443498,
                0.00004798173904418945
            ]
        },
        {
            "bufferView": 3,
            "byteOffset": 0,
            "componentType": 5125,
            "count": 351099,
            "type": "SCALAR",
            "max": [
                61180
            ],
            "min": [
                0
            ]
        }
    ],
    "buffers": [
        {
            "byteLength": 3362188,
            "uri": "3DModel.bin"
        }
    ],
    "bufferViews": [
        {
            "buffer": 0,
            "byteOffset": 0,
            "byteLength": 734172,
            "target": 34962
        },
        {
            "buffer": 0,
            "byteOffset": 734172,
            "byteLength": 734172,
            "target": 34962
        },
        {
            "buffer": 0,
            "byteOffset": 1468344,
            "byteLength": 489448,
            "target": 34962
        },
        {
            "buffer": 0,
            "byteOffset": 1957792,
            "byteLength": 1404396,
            "target": 34963
        }
    ],
    "images": [
        {
            "uri": "data:image/jpeg;base64,"
        }
    ],
    "materials": [
        {
            "name": "3DModel",
            "pbrMetallicRoughness": {
                "baseColorTexture": {
                    "index": 0
                },
                "metallicFactor": 0.0
            },
            "extensions": {
                "KHR_materials_pbrSpecularGlossiness": {
                    "specularFactor": [
                        0.0,
                        0.0,
                        0.0
                    ],
                    "glossinessFactor": 0.0,
                    "diffuseTexture": {
                        "index": 0
                    }
                }
            }
        }
    ],
    "meshes": [
        {
            "name": "3DModel",
            "primitives": [
                {
                    "mode": 4,
                    "material": 0,
                    "indices": 3,
                    "attributes": {
                        "POSITION": 0,
                        "NORMAL": 1,
                        "TEXCOORD_0": 2
                    }
                }
            ]
        }
    ],
    "nodes": [
        {
            "name": "3DModel.obj",
            "children": [
                1
            ]
        },
        {
            "name": "3DModel",
            "mesh": 0
        }
    ],
    "samplers": [
        {}
    ],
    "scenes": [
        {
            "nodes": [
                0
            ]
        }
    ],
    "textures": [
        {
            "source": 0,
            "sampler": 0
        }
    ],
    "scene": 0
}